<svg width="50" height="50" viewBox="0 0 50 50" fill="currentColor" xmlns="http://www.w3.org/2000/svg">
<mask id="mask0_14_2" style="mask-type:luminance" maskUnits="userSpaceOnUse" x="2" y="2" width="46" height="46">
<path d="M25 29.1667C26.1051 29.1667 27.1649 28.7277 27.9463 27.9463C28.7277 27.1649 29.1667 26.1051 29.1667 25C29.1667 23.8949 28.7277 22.8351 27.9463 22.0537C27.1649 21.2723 26.1051 20.8333 25 20.8333C23.8949 20.8333 22.8351 21.2723 22.0537 22.0537C21.2723 22.8351 20.8333 23.8949 20.8333 25C20.8333 26.1051 21.2723 27.1649 22.0537 27.9463C22.8351 28.7277 23.8949 29.1667 25 29.1667Z" fill="white" stroke="white" stroke-width="2.66667" stroke-linecap="round" stroke-linejoin="round"/>
<path d="M18.0875 14.5833C16.6507 15.5385 15.4263 16.7796 14.4906 18.2292M12.7052 27.2708C12.4296 25.7695 12.4296 24.2305 12.7052 22.7292M18.0875 35.4167C16.6507 34.4615 15.4263 33.2204 14.4906 31.7708M27.4583 37.2583C25.8354 37.5821 24.1646 37.5821 22.5417 37.2583M31.9125 35.4167C33.3492 34.4614 34.5736 33.2203 35.5094 31.7708M37.2948 27.2708C37.5706 25.7695 37.5706 24.2305 37.2948 22.7292M31.9125 14.5833C33.3492 15.5386 34.5736 16.7797 35.5094 18.2292M22.5417 12.7417C24.1645 12.4177 25.8355 12.4177 27.4583 12.7417M45.8333 25C45.8333 23.6007 45.6937 22.2049 45.4167 20.8333M4.16667 25C4.16694 23.6007 4.30651 22.205 4.58333 20.8333M40.2563 39.1875C39.3683 40.1418 38.3932 41.0112 37.3438 41.7844M9.74375 39.1875C10.6317 40.1418 11.6068 41.0112 12.6562 41.7844M16.3667 6.03438C15.0577 6.63104 13.8142 7.36205 12.6562 8.21563M33.6333 6.03438C34.9423 6.63104 36.1858 7.36205 37.3438 8.21563M27.3396 4.29688C25.7847 4.12305 24.2153 4.12305 22.6604 4.29688M27.3396 45.7031C28.8486 45.5346 30.3346 45.201 31.7708 44.7083M22.6594 45.7031C21.1507 45.5345 19.6651 45.2009 18.2292 44.7083M8.49479 12.2854C7.74184 13.2616 7.07675 14.3024 6.50729 15.3958M41.5052 12.2854C42.258 13.2617 42.9231 14.3025 43.4927 15.3958M6.50729 34.6042C5.9224 33.4797 5.44191 32.3039 5.07187 31.0917M43.4927 34.6042C44.0776 33.4797 44.5581 32.3039 44.9281 31.0917" stroke="currentColor" stroke-width="2.66667" stroke-linecap="round" stroke-linejoin="round"/>
</mask>
<g mask="url(#mask0_14_2)">
<path d="M0 0H50V50H0V0Z" fill="currentColor"/>
</g>
</svg>
