<svg width="50" height="50" viewBox="0 0 50 50" fill="none" xmlns="http://www.w3.org/2000/svg">
<path fill-rule="evenodd" clip-rule="evenodd" d="M21.4811 49.5293C21.4432 49.5293 21.4242 49.5293 21.3864 49.5068L18.2829 48.5877C18.2641 48.5877 18.226 48.5652 18.2072 48.5427L16.1635 47.332V47.7805C16.1635 47.9596 16.0876 48.1168 15.9552 48.1841L14.9144 48.7894C14.8576 48.8117 14.8008 48.8342 14.744 48.8342C14.6872 48.8342 14.6304 48.8117 14.5736 48.7894L4.20322 42.6457C4.0708 42.5784 3.99499 42.4215 3.99499 42.2424V38.9015L0.569743 36.8834C0.437317 36.8161 0.361506 36.6592 0.361506 36.4798V31.5696C0.361506 31.3901 0.437317 31.2332 0.569743 31.1659L2.12163 30.2468C2.17844 30.2243 2.23525 30.2018 2.29206 30.2018C2.34867 30.2018 2.40548 30.2243 2.4621 30.2466L4.82774 31.6594L5.22521 31.4127C5.28202 31.3901 5.33883 31.3679 5.39564 31.3679C5.45226 31.3679 5.50907 31.3901 5.56588 31.4127L5.75511 31.5248L8.17737 27.8699L7.8367 27.6682C7.70428 27.6009 7.62847 27.444 7.62847 27.2646V20.3587L6.54986 19.7086C6.41744 19.6413 6.34162 19.4844 6.34162 19.3048V9.48447C6.34162 9.30529 6.41744 9.14816 6.54986 9.08109L21.0648 0.493449C21.1216 0.471168 21.1784 0.448654 21.2352 0.448654C21.292 0.448654 21.3488 0.471168 21.4054 0.493449L29.524 5.31413L29.8646 5.1122C29.9214 5.08992 29.9782 5.06741 30.0351 5.06741C30.0917 5.06741 30.1485 5.08992 30.2053 5.11244L36.4313 8.78957C36.5637 8.85688 36.6395 9.01378 36.6395 9.19319V15.0446L44.7202 19.8428C44.8526 19.9101 44.9282 20.067 44.9282 20.2466V23.0492L46.2721 23.8562C46.2909 23.8787 46.3287 23.9013 46.3477 23.9235L49.4513 26.9954C49.5459 27.0849 49.5837 27.1973 49.5837 27.3317V28.2508C49.5837 28.4304 49.5079 28.5873 49.3755 28.6546L47.2939 29.8878C47.2371 29.91 47.1803 29.9326 47.1235 29.9326C47.0478 29.9326 46.9722 29.91 46.8964 29.843L44.9094 28.0716V28.9684L46.2531 29.9999L49.3189 31.2105C49.4701 31.2778 49.5837 31.4347 49.5837 31.6366V32.5557C49.5837 32.7354 49.5079 32.8923 49.3755 32.9596L47.2939 34.1927C47.2371 34.215 47.1803 34.2375 47.1235 34.2375C47.0856 34.2375 47.0666 34.2375 47.0288 34.215L43.9253 33.2959C43.9065 33.2959 43.8684 33.2734 43.8496 33.2509L40.8597 31.4797L40.7083 31.5693C40.6704 31.6141 40.6514 31.6591 40.5946 31.6814C40.5378 31.7262 40.4622 31.7487 40.3864 31.7487C40.3296 31.7487 40.2728 31.7262 40.2162 31.7039L36.6205 29.5737V30.0672C36.6205 30.2464 36.5449 30.4035 36.4124 30.4708L21.8975 39.0582C21.8407 39.0805 21.7839 39.103 21.7271 39.103C21.6703 39.103 21.6135 39.0805 21.5567 39.0582L19.4751 37.8251C19.3427 37.7578 19.267 37.6009 19.267 37.4212V36.928C19.229 36.9505 19.1724 36.9505 19.1344 36.9505C19.0776 36.9505 19.0208 36.928 18.9642 36.9057L16.8826 35.6726C16.75 35.6053 16.6744 35.4484 16.6744 35.2687V34.9327L15.8418 34.4392C15.7092 34.3719 15.6336 34.215 15.6336 34.0358V32.1971L10.9971 29.5289L9.4074 31.8833L16.9582 36.3452C17.0906 36.4125 17.1664 36.5694 17.1664 36.7488V37.1522L20.5917 39.1703C20.6107 39.1926 20.6485 39.2151 20.6673 39.2376L23.7709 42.3092C23.8655 42.399 23.9035 42.5111 23.9035 42.6457V43.5649C23.9035 43.7443 23.8277 43.9014 23.6953 43.9685L21.6137 45.2016C21.5569 45.2241 21.5001 45.2464 21.4433 45.2464C21.3676 45.2464 21.2918 45.2241 21.216 45.1568L18.1504 42.4436L17.1474 42.0177V42.7128L20.5539 45.3137L23.6197 46.5246C23.7709 46.5919 23.8845 46.7488 23.8845 46.9505V47.8698C23.8845 48.0492 23.8089 48.2064 23.6763 48.2734L21.5947 49.5066C21.5947 49.5291 21.5379 49.5293 21.4811 49.5293Z" fill="url(#paint0_linear_5_7)"/>
<path fill-rule="evenodd" clip-rule="evenodd" d="M21.2162 0.896828L22.7679 1.81594L23.279 2.12997L25.3606 3.36334L29.505 5.82961L30.0161 5.51582L36.261 9.19295V15.3364L44.5498 20.2466V23.3184L46.1017 24.2376L49.2052 27.3094V28.2287L47.1235 29.4619L44.5498 27.1302V29.1703L46.1017 30.3587L49.2052 31.5921V32.5112L47.1235 33.7445L44.0199 32.8252L40.8597 30.9642L40.3864 31.2335V31.3005L36.242 28.834V30.0674L21.7271 38.6548L19.6455 37.4217V36.1883L19.1344 35.8745V36.4798L17.0528 35.2467V34.6414L16.012 34.0361V31.9059L10.8835 28.9461L8.82069 32.018L16.7878 36.7265V37.3992L20.4213 39.5516L23.5248 42.6235V43.5426L21.4433 44.7759L18.3397 42.0179L16.788 41.3678V42.9373L20.4213 45.695L23.5248 46.9284V47.8475L21.4433 49.0809L18.3397 48.1616L15.785 46.6367V47.8027L14.744 48.4083L4.37346 42.2646V38.6323L0.759175 36.5023V31.5921L2.31067 30.6727L4.84674 32.1749L5.41445 31.8385L5.86854 32.1078L8.78288 27.7355L8.00713 27.2871V20.0897L6.7201 19.3273V9.48423L21.2162 0.896828ZM21.2162 0C21.1026 0 20.989 0.0225135 20.8755 0.0895899L6.37943 8.69951C6.11458 8.85641 5.96315 9.17043 5.96315 9.50674V19.3273C5.96315 19.6638 6.13358 19.9776 6.37943 20.1345L7.25019 20.6502V27.3094C7.25019 27.6234 7.38262 27.9149 7.60986 28.0718L5.66069 31.009C5.58488 30.9865 5.50926 30.9642 5.41465 30.9642C5.30103 30.9642 5.18741 30.9865 5.07379 31.0538L4.84694 31.1884L2.65173 29.8655C2.53811 29.7982 2.42449 29.7759 2.31087 29.7759C2.19744 29.7759 2.08382 29.7982 1.9704 29.8655L0.418512 30.7848C0.172467 30.9417 0.00203705 31.2557 0.00203705 31.5921V36.5023C0.00203705 36.8386 0.172467 37.1524 0.418316 37.3096L3.63552 39.2153V42.2871C3.63552 42.6235 3.80595 42.9373 4.0518 43.0941L14.4225 49.2378C14.536 49.3051 14.6494 49.3274 14.763 49.3274C14.8766 49.3274 14.9902 49.3051 15.1037 49.2378L16.1445 48.6325C16.2351 48.5779 16.3154 48.5021 16.3805 48.4096C16.4456 48.317 16.494 48.2097 16.5229 48.0942L18.0558 48.9911C18.1126 49.0136 18.1504 49.0359 18.2072 49.0584L21.3108 49.9775C21.3676 50 21.4244 50 21.5001 50C21.6137 50 21.7273 49.9777 21.8407 49.9104L23.9223 48.6773C24.1874 48.5204 24.3386 48.2063 24.3386 47.87V46.9509C24.3386 46.5696 24.1306 46.2108 23.8277 46.0987L22.1434 45.426L23.9223 44.3723C24.1874 44.2154 24.3386 43.9014 24.3386 43.5651V42.646C24.339 42.5144 24.3156 42.3842 24.2699 42.2643C24.2242 42.1444 24.1573 42.0375 24.0737 41.9508L21.6137 39.5291C21.6705 39.5516 21.7273 39.5516 21.7649 39.5516C21.8785 39.5516 21.9922 39.5291 22.1058 39.462L36.6205 30.8744C36.8287 30.7623 36.9614 30.5381 37.018 30.2916L40.0837 32.1078C40.1974 32.1751 40.3108 32.1974 40.4244 32.1974C40.5568 32.1974 40.7083 32.1526 40.8217 32.0628C40.8597 32.0405 40.8785 32.018 40.9163 31.9732L43.7172 33.6324C43.774 33.6547 43.8118 33.6772 43.8686 33.6997L46.9722 34.6189C47.029 34.6414 47.0859 34.6414 47.1615 34.6414C47.2751 34.6414 47.3885 34.6188 47.5019 34.5515L49.5837 33.3184C49.8486 33.1615 50 32.8477 50 32.5112V31.5921C50 31.2107 49.792 30.8521 49.4891 30.74L47.8048 30.0674L49.5835 29.0137C49.8486 28.8565 50 28.5425 50 28.2064V27.2871C50 27.0179 49.9054 26.7714 49.7351 26.592L46.5748 23.5427C46.5318 23.4926 46.4801 23.4544 46.4233 23.4306L45.2879 22.7579V20.2243C45.2879 19.8878 45.1175 19.574 44.8716 19.4171L36.999 14.7533V9.19295C36.999 8.85641 36.8285 8.54261 36.5827 8.38571L30.3757 4.70858C30.2621 4.64127 30.1485 4.61876 30.0351 4.61876C29.9214 4.61876 29.8078 4.64127 29.6944 4.70858L29.524 4.82068L25.7204 2.5561L23.6385 1.32296L23.1276 1.00893L21.5757 0.089822C21.4621 0.0225135 21.3486 0 21.2162 0ZM10.0319 31.7264L11.1295 30.0897L15.2739 32.4889V34.0583C15.2739 34.3949 15.4443 34.7087 15.6904 34.8656L16.3147 35.2244V35.2917C16.3147 35.359 16.3147 35.4261 16.3337 35.4709L10.0319 31.7264ZM17.5827 36.8612V36.749C17.5827 36.6817 17.5827 36.6144 17.5637 36.5696L18.8128 37.3096C18.8506 37.3318 18.8696 37.3544 18.9074 37.3544V37.4217C18.9074 37.5113 18.9264 37.6011 18.9452 37.6682L17.5827 36.8612Z" fill="#333333"/>
<path d="M36.261 30.0674L21.7461 38.6548V28.834L36.261 20.2243V30.0674Z" fill="url(#paint1_linear_5_7)" stroke="#333333" stroke-width="0.148148"/>
<path fill-rule="evenodd" clip-rule="evenodd" d="M33.1384 14.7085V24.5291L43.5088 30.6727V20.8519L33.1384 14.7085Z" fill="url(#paint2_linear_5_7)" stroke="#333333" stroke-width="0.148148"/>
<path fill-rule="evenodd" clip-rule="evenodd" d="M43.5088 20.8519V30.6727L44.5498 30.0672V20.2241L43.5088 20.8519Z" fill="url(#paint3_linear_5_7)" stroke="#333333" stroke-width="0.148148"/>
<path fill-rule="evenodd" clip-rule="evenodd" d="M33.1384 14.7085L34.1792 14.103L44.5498 20.2241L43.5088 20.8519L33.1384 14.7085Z" fill="url(#paint4_linear_5_7)" stroke="#333333" stroke-width="0.148148"/>
<path fill-rule="evenodd" clip-rule="evenodd" d="M34.1792 16.5022L32.0976 17.713L40.4054 22.6233L42.4682 21.4125L34.179 16.5022H34.1792ZM28.9941 15.9417L27.4422 16.8608L33.6683 20.5381L35.22 19.6188L28.9941 15.9417ZM27.4422 16.861V21.7713L33.6683 25.4484V20.5381L27.4422 16.861Z" fill="#676767"/>
<path d="M33.6683 20.5381L27.4422 16.8608L28.9941 15.9417L35.22 19.6188L33.6683 20.5381ZM33.6683 20.5381V25.4484L27.4422 21.7713V16.861L33.6683 20.5381ZM34.1792 16.5022L32.0976 17.713L40.4054 22.6233L42.4682 21.4125L34.179 16.5022H34.1792Z" stroke="#333333" stroke-width="0.148148"/>
<path fill-rule="evenodd" clip-rule="evenodd" d="M32.0976 17.7801V26.3677L40.4054 31.278V22.6904L32.0976 17.7801Z" fill="#676767" stroke="#333333" stroke-width="0.148148"/>
<path fill-rule="evenodd" clip-rule="evenodd" d="M42.468 21.4125L40.4052 22.6233V31.2332L42.468 30.0001V21.4125Z" fill="#676767" stroke="#333333" stroke-width="0.148148"/>
<path fill-rule="evenodd" clip-rule="evenodd" d="M40.4052 28.834V30.6725L44.0197 32.825V31.5918L40.4052 28.834Z" fill="url(#paint5_linear_5_7)" stroke="#333333" stroke-width="0.148148"/>
<path fill-rule="evenodd" clip-rule="evenodd" d="M44.0197 31.5918V32.825L47.1233 33.7443V32.8252L44.0197 31.5918Z" fill="url(#paint6_linear_5_7)" stroke="#333333" stroke-width="0.148148"/>
<path fill-rule="evenodd" clip-rule="evenodd" d="M47.1233 32.8249V33.7443L49.2051 32.5112V31.592L47.1233 32.8249Z" fill="url(#paint7_linear_5_7)" stroke="#333333" stroke-width="0.148148"/>
<path fill-rule="evenodd" clip-rule="evenodd" d="M46.1013 30.3587L44.0197 31.5918L47.1233 32.825L49.2051 31.5918L46.1013 30.3587Z" fill="url(#paint8_linear_5_7)" stroke="#333333" stroke-width="0.148148"/>
<path fill-rule="evenodd" clip-rule="evenodd" d="M42.468 27.6009L40.4052 28.834L44.0197 31.5918L46.1015 30.3587L42.468 27.6009Z" fill="url(#paint9_linear_5_7)" stroke="#333333" stroke-width="0.148148"/>
<path fill-rule="evenodd" clip-rule="evenodd" d="M40.4052 23.2959V25.1344L44.0197 26.6816V25.4484L40.4052 23.2959Z" fill="url(#paint10_linear_5_7)" stroke="#333333" stroke-width="0.148148"/>
<path fill-rule="evenodd" clip-rule="evenodd" d="M44.0197 25.4484V26.6815L47.1233 29.4393V28.5202L44.0197 25.4482V25.4484Z" fill="url(#paint11_linear_5_7)" stroke="#333333" stroke-width="0.148148"/>
<path fill-rule="evenodd" clip-rule="evenodd" d="M47.1233 28.52V29.4393L49.2051 28.2062V27.2871L47.1233 28.52Z" fill="url(#paint12_linear_5_7)" stroke="#333333" stroke-width="0.148148"/>
<path fill-rule="evenodd" clip-rule="evenodd" d="M42.468 22.0851L40.4052 23.2959L44.0197 25.4484L46.1015 24.215L42.468 22.0851Z" fill="url(#paint13_linear_5_7)" stroke="#333333" stroke-width="0.148148"/>
<path fill-rule="evenodd" clip-rule="evenodd" d="M46.1013 24.215L44.0197 25.4484L47.1233 28.52L49.2051 27.2868L46.1013 24.215Z" fill="url(#paint14_linear_5_7)" stroke="#333333" stroke-width="0.148148"/>
<path fill-rule="evenodd" clip-rule="evenodd" d="M8.00694 9.79826V27.2869L17.6017 32.8252V15.3138L8.00694 9.79826Z" fill="#676767" stroke="#333333" stroke-width="0.148148"/>
<path fill-rule="evenodd" clip-rule="evenodd" d="M13.9682 13.7892V22.6906L16.0498 24.2155V34.0583L21.2162 37.1076V18.0944L13.9681 13.7894L13.9682 13.7892ZM22.7867 1.81616L8.53684 10.4038L20.9702 17.7803L35.2202 9.19271L22.7867 1.81616Z" fill="#676767" stroke="#333333" stroke-width="0.148148"/>
<path fill-rule="evenodd" clip-rule="evenodd" d="M6.7201 9.48424L21.2162 0.896835L29.524 5.80711L15.009 14.3947L6.7201 9.48424Z" fill="url(#paint15_linear_5_7)" stroke="#333333" stroke-width="0.148148"/>
<path fill-rule="evenodd" clip-rule="evenodd" d="M21.2162 3.36311L23.2978 2.12997L25.3796 3.36334L23.2978 4.57397L21.2162 3.36334V3.36311Z" fill="url(#paint16_linear_5_7)" stroke="#333333" stroke-width="0.148148"/>
<path fill-rule="evenodd" clip-rule="evenodd" d="M21.2162 19.305L35.7311 10.7174V29.1256L21.2162 37.7355V19.305ZM10.8645 9.48424L12.9273 10.7176L23.298 4.57397L21.2162 3.36334L10.8645 9.48424Z" fill="#676767" stroke="#333333" stroke-width="0.148148"/>
<path fill-rule="evenodd" clip-rule="evenodd" d="M21.2162 5.8071L22.7869 4.888L23.2978 4.57397L21.2162 3.36334V5.8071Z" fill="#676767" stroke="#333333" stroke-width="0.148148"/>
<path fill-rule="evenodd" clip-rule="evenodd" d="M20.1942 6.41265L20.7053 6.12114L21.7461 5.49331L20.1942 4.5742V6.41265Z" fill="#333333" stroke="#333333" stroke-width="0.148148"/>
<path fill-rule="evenodd" clip-rule="evenodd" d="M20.1942 4.57395L21.7461 5.49329L22.257 5.20178L20.7053 4.28267L20.1942 4.57395Z" fill="#676767" stroke="#333333" stroke-width="0.148148"/>
<path fill-rule="evenodd" clip-rule="evenodd" d="M19.1534 7.04045L19.6645 6.72642L20.7053 6.1211L19.1534 5.202V7.04045Z" fill="#333333" stroke="#333333" stroke-width="0.148148"/>
<path fill-rule="evenodd" clip-rule="evenodd" d="M19.1534 5.20178L20.7053 6.12112L21.2162 5.80733L19.6645 4.88799L19.1534 5.20178Z" fill="#676767" stroke="#333333" stroke-width="0.148148"/>
<path fill-rule="evenodd" clip-rule="evenodd" d="M18.1126 7.64576L18.6425 7.33197L19.6645 6.72642L18.1126 5.80731V7.64576Z" fill="#333333" stroke="#333333" stroke-width="0.148148"/>
<path fill-rule="evenodd" clip-rule="evenodd" d="M18.1126 5.80708L19.6645 6.72642L20.1944 6.41263L18.6425 5.49329L18.1126 5.80708Z" fill="#676767" stroke="#333333" stroke-width="0.148148"/>
<path fill-rule="evenodd" clip-rule="evenodd" d="M17.0716 8.27361L17.6015 7.95958L18.6423 7.33175L17.0716 6.41264V8.27361Z" fill="#333333" stroke="#333333" stroke-width="0.148148"/>
<path fill-rule="evenodd" clip-rule="evenodd" d="M17.0716 6.41264L18.6423 7.33175L19.1534 7.04047L17.6015 6.12112L17.0716 6.41264Z" fill="#676767" stroke="#333333" stroke-width="0.148148"/>
<path fill-rule="evenodd" clip-rule="evenodd" d="M16.0498 8.87892L16.5607 8.56512L17.6015 7.95958L16.0498 7.04047V8.87892Z" fill="#333333" stroke="#333333" stroke-width="0.148148"/>
<path fill-rule="evenodd" clip-rule="evenodd" d="M16.0498 7.04025L17.6015 7.95959L18.1126 7.6458L16.5607 6.72646L16.0498 7.04025Z" fill="#676767" stroke="#333333" stroke-width="0.148148"/>
<path fill-rule="evenodd" clip-rule="evenodd" d="M15.009 9.48423L15.5199 9.19272L16.5607 8.56489L15.009 7.64578V9.48423Z" fill="#333333" stroke="#333333" stroke-width="0.148148"/>
<path fill-rule="evenodd" clip-rule="evenodd" d="M15.009 7.64579L16.5607 8.56489L17.0718 8.27361L15.5199 7.33176L15.009 7.64579Z" fill="#676767" stroke="#333333" stroke-width="0.148148"/>
<path fill-rule="evenodd" clip-rule="evenodd" d="M13.9681 10.1121L14.498 9.79826L15.5197 9.19271L13.9681 8.27361V10.1121Z" fill="#333333" stroke="#333333" stroke-width="0.148148"/>
<path fill-rule="evenodd" clip-rule="evenodd" d="M13.9681 8.27338L15.5197 9.19272L16.0496 8.87892L14.498 7.95958L13.9681 8.27338Z" fill="#676767" stroke="#333333" stroke-width="0.148148"/>
<path fill-rule="evenodd" clip-rule="evenodd" d="M12.9273 10.7176L13.4572 10.4038L14.498 9.79826L12.9273 8.87915V10.7176Z" fill="#333333" stroke="#333333" stroke-width="0.148148"/>
<path fill-rule="evenodd" clip-rule="evenodd" d="M12.9273 8.87915L14.498 9.79826L15.0089 9.48446L13.4572 8.56535L12.9273 8.87915Z" fill="#676767" stroke="#333333" stroke-width="0.148148"/>
<path fill-rule="evenodd" clip-rule="evenodd" d="M11.9053 11.3229L12.4164 11.0316L13.4572 10.4038L11.9053 9.48447V11.3229Z" fill="#333333" stroke="#333333" stroke-width="0.148148"/>
<path fill-rule="evenodd" clip-rule="evenodd" d="M11.9053 9.48448L13.4572 10.4036L13.9681 10.1123L12.4164 9.19296L11.9053 9.48448Z" fill="#676767" stroke="#333333" stroke-width="0.148148"/>
<path fill-rule="evenodd" clip-rule="evenodd" d="M23.298 23.61V27.2871L26.9315 25.1346V21.4575L23.298 23.61Z" fill="#36A3C9" stroke="#010101" stroke-width="0.148148"/>
<path fill-rule="evenodd" clip-rule="evenodd" d="M25.8905 24.5293V22.0853L23.298 23.6102V26.0765L25.8905 24.5293Z" fill="#50C8EC"/>
<path fill-rule="evenodd" clip-rule="evenodd" d="M26.9315 25.1349V21.4573L24.3388 23.0047L23.298 23.61" fill="url(#paint17_linear_5_7)"/>
<path fill-rule="evenodd" clip-rule="evenodd" d="M23.298 23.61V27.2871L26.9315 25.1346V21.4575L23.298 23.61Z" stroke="#333333" stroke-width="0.148148"/>
<path fill-rule="evenodd" clip-rule="evenodd" d="M30.0349 19.6188V23.2959L33.6683 21.166V17.4663L30.0349 19.6188Z" fill="#36A3C9" stroke="#010101" stroke-width="0.148148"/>
<path fill-rule="evenodd" clip-rule="evenodd" d="M32.6275 20.5384V18.0944L30.0349 19.6188V22.0853L32.6275 20.5384Z" fill="#50C8EC"/>
<path fill-rule="evenodd" clip-rule="evenodd" d="M33.6683 21.1662V17.4666L31.0759 19.0133L30.0349 19.6188" fill="url(#paint18_linear_5_7)"/>
<path fill-rule="evenodd" clip-rule="evenodd" d="M30.0349 19.6188V23.2959L33.6683 21.166V17.4663L30.0349 19.6188Z" stroke="#333333" stroke-width="0.148148"/>
<path fill-rule="evenodd" clip-rule="evenodd" d="M15.009 21.7713V14.3947L6.7201 9.48422V19.305L17.0718 25.4486V35.2692L19.1534 36.5023V26.6815L21.2162 27.9149V25.4484L15.009 21.7713Z" fill="url(#paint19_linear_5_7)" stroke="#333333" stroke-width="0.148148"/>
<path d="M36.261 30.0674L21.7461 38.6548V28.834L36.261 20.2243V30.0674Z" fill="url(#paint20_linear_5_7)" stroke="#333333" stroke-width="0.148148"/>
<path fill-rule="evenodd" clip-rule="evenodd" d="M19.6643 27.6011V37.4217L21.7461 38.6548V28.834L19.6643 27.6011Z" fill="url(#paint21_linear_5_7)" stroke="#333333" stroke-width="0.148148"/>
<path fill-rule="evenodd" clip-rule="evenodd" d="M36.261 16.5472L21.7461 25.1346V17.7803L36.261 9.1927V16.5472Z" fill="url(#paint22_linear_5_7)" stroke="#333333" stroke-width="0.148148"/>
<path fill-rule="evenodd" clip-rule="evenodd" d="M15.5199 14.1032L30.0349 5.49329L36.261 9.19293L21.7461 17.7803L15.5199 14.1032Z" fill="url(#paint23_linear_5_7)" stroke="#333333" stroke-width="0.148148"/>
<path fill-rule="evenodd" clip-rule="evenodd" d="M24.8497 13.4754L28.9941 11.0314L31.0757 12.2645L26.9313 14.7085L24.8497 13.4754Z" fill="url(#paint24_linear_5_7)" stroke="#333333" stroke-width="0.148148"/>
<path fill-rule="evenodd" clip-rule="evenodd" d="M15.5199 14.1032V21.4575L21.7461 25.1346V17.7803L15.5199 14.1032Z" fill="url(#paint25_linear_5_7)" stroke="#333333" stroke-width="0.148148"/>
<path fill-rule="evenodd" clip-rule="evenodd" d="M21.7461 28.834L36.261 20.2243L35.7311 19.9328L21.2162 28.5202L21.7461 28.834Z" fill="url(#paint26_linear_5_7)" stroke="#333333" stroke-width="0.148148"/>
<path fill-rule="evenodd" clip-rule="evenodd" d="M10.5996 23.9238V26.9956L12.6814 28.2064V25.1346L10.5996 23.9238Z" fill="#333333" stroke="#333333" stroke-width="0.148148"/>
<path fill-rule="evenodd" clip-rule="evenodd" d="M4.39246 34.3499V36.5023L5.41445 37.1076V34.9777L4.39246 34.3499ZM11.1295 24.2153L4.39246 34.3499L5.41445 34.9777L12.1513 24.8431L11.1295 24.2153ZM5.41445 34.9777V37.1076L12.6814 26.3678V25.1346L12.1513 24.8431L5.41445 34.9777Z" fill="#676767"/>
<path d="M4.39246 34.3499V36.5023L5.41445 37.1076M4.39246 34.3499L5.41445 34.9777M4.39246 34.3499L11.1295 24.2153L12.1513 24.8431M5.41445 37.1076V34.9777M5.41445 37.1076L12.6814 26.3678V25.1346L12.1513 24.8431M5.41445 34.9777L12.1513 24.8431" stroke="#333333" stroke-width="0.148148"/>
<path fill-rule="evenodd" clip-rule="evenodd" d="M8.53684 31.8385L6.45524 33.0717L14.744 37.9822L16.8258 36.7488L8.53684 31.8385ZM2.31087 30.6727L0.75898 31.5918L8.00713 35.897L9.55863 34.9777L2.31087 30.6727ZM0.75898 31.5921V36.5023L8.00713 40.8073V35.897L0.75898 31.5921Z" fill="#676767"/>
<path d="M8.00713 35.897L0.75898 31.5918L2.31087 30.6727L9.55863 34.9777L8.00713 35.897ZM8.00713 35.897V40.8073L0.75898 36.5023V31.5921L8.00713 35.897ZM8.53684 31.8385L6.45524 33.0717L14.744 37.9822L16.8258 36.7488L8.53684 31.8385Z" stroke="#333333" stroke-width="0.148148"/>
<path fill-rule="evenodd" clip-rule="evenodd" d="M6.45525 33.1167V41.7264L14.744 46.6369V38.027L6.45525 33.1167ZM16.8256 36.7488L14.744 37.9822V46.5696L16.8258 45.3364L16.8256 36.7488Z" fill="#676767" stroke="#333333" stroke-width="0.148148"/>
<path fill-rule="evenodd" clip-rule="evenodd" d="M14.744 44.1704V46.0091L18.3773 48.1615V46.9282L14.744 44.1704Z" fill="url(#paint27_linear_5_7)" stroke="#333333" stroke-width="0.148148"/>
<path fill-rule="evenodd" clip-rule="evenodd" d="M18.3773 46.9282V48.1615L21.4809 49.0807V48.1615L18.3773 46.9282Z" fill="url(#paint28_linear_5_7)" stroke="#333333" stroke-width="0.148148"/>
<path fill-rule="evenodd" clip-rule="evenodd" d="M21.4809 48.1615V49.0807L23.5627 47.87V46.9282L21.4809 48.1615Z" fill="url(#paint29_linear_5_7)" stroke="#333333" stroke-width="0.148148"/>
<path fill-rule="evenodd" clip-rule="evenodd" d="M20.4401 45.7176L18.3773 46.9282L21.4809 48.1616L23.5627 46.9282L20.4401 45.7176Z" fill="url(#paint30_linear_5_7)" stroke="#333333" stroke-width="0.148148"/>
<path fill-rule="evenodd" clip-rule="evenodd" d="M16.8256 42.9598L14.7438 44.1704L18.3773 46.9282L20.4401 45.7176L16.8256 42.9598Z" fill="url(#paint31_linear_5_7)" stroke="#333333" stroke-width="0.148148"/>
<path fill-rule="evenodd" clip-rule="evenodd" d="M14.744 38.6548V40.4933L18.3773 42.0182V40.8073L14.744 38.6548Z" fill="url(#paint32_linear_5_7)" stroke="#333333" stroke-width="0.148148"/>
<path fill-rule="evenodd" clip-rule="evenodd" d="M18.3773 40.8073V42.0179L21.4809 44.7984V43.8786L18.3773 40.8073Z" fill="url(#paint33_linear_5_7)" stroke="#333333" stroke-width="0.148148"/>
<path fill-rule="evenodd" clip-rule="evenodd" d="M21.4809 43.8789V44.7982L23.5627 43.5651V42.646L21.4809 43.8789Z" fill="url(#paint34_linear_5_7)" stroke="#333333" stroke-width="0.148148"/>
<path fill-rule="evenodd" clip-rule="evenodd" d="M16.8256 37.4217L14.7438 38.6546L18.3773 40.807L20.4401 39.5737L16.8256 37.4217Z" fill="url(#paint35_linear_5_7)" stroke="#333333" stroke-width="0.148148"/>
<path fill-rule="evenodd" clip-rule="evenodd" d="M20.4401 39.5739L18.3773 40.8073L21.4809 43.8786L23.5627 42.6455L20.4401 39.5739Z" fill="url(#paint36_linear_5_7)" stroke="#333333" stroke-width="0.148148"/>
<path fill-rule="evenodd" clip-rule="evenodd" d="M4.39246 32.4439V42.2871L14.744 48.408V38.5875L4.39246 32.4439Z" fill="url(#paint37_linear_5_7)" stroke="#333333" stroke-width="0.148148"/>
<path fill-rule="evenodd" clip-rule="evenodd" d="M14.744 38.5875V48.408L15.785 47.8027V37.9819L14.744 38.5875Z" fill="url(#paint38_linear_5_7)" stroke="#333333" stroke-width="0.148148"/>
<path fill-rule="evenodd" clip-rule="evenodd" d="M4.39246 32.4438L5.41445 31.8385L15.785 37.9822L14.744 38.5875L4.39246 32.4438Z" fill="url(#paint39_linear_5_7)" stroke="#333333" stroke-width="0.148148"/>
<path fill-rule="evenodd" clip-rule="evenodd" d="M8.78288 10.7176L10.8647 9.48422L12.9275 10.7176L10.8647 11.9507L8.78288 10.7176Z" fill="url(#paint40_linear_5_7)" stroke="#333333" stroke-width="0.148148"/>
<defs>
<linearGradient id="paint0_linear_5_7" x1="603.973" y1="879.238" x2="3742.79" y2="4619.55" gradientUnits="userSpaceOnUse">
<stop stop-color="white"/>
<stop offset="1" stop-color="#F3F3F3"/>
</linearGradient>
<linearGradient id="paint1_linear_5_7" x1="358.304" y1="481.668" x2="1302.39" y2="1175.43" gradientUnits="userSpaceOnUse">
<stop stop-color="white"/>
<stop offset="1" stop-color="#CDCCCC"/>
</linearGradient>
<linearGradient id="paint2_linear_5_7" x1="-44.1517" y1="106.887" x2="1474.01" y2="865.92" gradientUnits="userSpaceOnUse">
<stop stop-color="#E6E6E5"/>
<stop offset="1" stop-color="#B4B4B4"/>
</linearGradient>
<linearGradient id="paint3_linear_5_7" x1="-125.245" y1="282.17" x2="321.314" y2="287.421" gradientUnits="userSpaceOnUse">
<stop stop-color="#E6E6E5"/>
<stop offset="1" stop-color="#B4B4B4"/>
</linearGradient>
<linearGradient id="paint4_linear_5_7" x1="201.969" y1="-124.777" x2="524.752" y2="968.571" gradientUnits="userSpaceOnUse">
<stop stop-color="white"/>
<stop offset="1" stop-color="#F3F3F3"/>
</linearGradient>
<linearGradient id="paint5_linear_5_7" x1="33.0678" y1="36.0057" x2="420.036" y2="412.065" gradientUnits="userSpaceOnUse">
<stop stop-color="#E6E6E5"/>
<stop offset="1" stop-color="#B4B4B4"/>
</linearGradient>
<linearGradient id="paint6_linear_5_7" x1="70.3101" y1="0.860885" x2="206.77" y2="336.984" gradientUnits="userSpaceOnUse">
<stop stop-color="#E6E6E5"/>
<stop offset="1" stop-color="#B4B4B4"/>
</linearGradient>
<linearGradient id="paint7_linear_5_7" x1="106.327" y1="85.2669" x2="200.449" y2="189.583" gradientUnits="userSpaceOnUse">
<stop stop-color="#E6E6E5"/>
<stop offset="1" stop-color="#B4B4B4"/>
</linearGradient>
<linearGradient id="paint8_linear_5_7" x1="44.4034" y1="153.636" x2="562.556" y2="153.636" gradientUnits="userSpaceOnUse">
<stop stop-color="white"/>
<stop offset="1" stop-color="#F3F3F3"/>
</linearGradient>
<linearGradient id="paint9_linear_5_7" x1="39.5451" y1="227.147" x2="609.508" y2="227.147" gradientUnits="userSpaceOnUse">
<stop stop-color="white"/>
<stop offset="1" stop-color="#F3F3F3"/>
</linearGradient>
<linearGradient id="paint10_linear_5_7" x1="46.0221" y1="16.4265" x2="344.208" y2="419.097" gradientUnits="userSpaceOnUse">
<stop stop-color="#E6E6E5"/>
<stop offset="1" stop-color="#B4B4B4"/>
</linearGradient>
<linearGradient id="paint11_linear_5_7" x1="31.4502" y1="41.2172" x2="427.098" y2="324.68" gradientUnits="userSpaceOnUse">
<stop stop-color="#E6E6E5"/>
<stop offset="1" stop-color="#B4B4B4"/>
</linearGradient>
<linearGradient id="paint12_linear_5_7" x1="106.327" y1="81.7282" x2="200.449" y2="186.044" gradientUnits="userSpaceOnUse">
<stop stop-color="#E6E6E5"/>
<stop offset="1" stop-color="#B4B4B4"/>
</linearGradient>
<linearGradient id="paint13_linear_5_7" x1="39.5451" y1="190.013" x2="609.508" y2="190.013" gradientUnits="userSpaceOnUse">
<stop stop-color="white"/>
<stop offset="1" stop-color="#F3F3F3"/>
</linearGradient>
<linearGradient id="paint14_linear_5_7" x1="44.4034" y1="240.04" x2="562.556" y2="240.04" gradientUnits="userSpaceOnUse">
<stop stop-color="white"/>
<stop offset="1" stop-color="#F3F3F3"/>
</linearGradient>
<linearGradient id="paint15_linear_5_7" x1="654.145" y1="92.9796" x2="1050.49" y2="1433.3" gradientUnits="userSpaceOnUse">
<stop stop-color="white"/>
<stop offset="1" stop-color="#F3F3F3"/>
</linearGradient>
<linearGradient id="paint16_linear_5_7" x1="125.788" y1="1.58985" x2="207.802" y2="283.579" gradientUnits="userSpaceOnUse">
<stop stop-color="white"/>
<stop offset="1" stop-color="#F3F3F3"/>
</linearGradient>
<linearGradient id="paint17_linear_5_7" x1="356.59" y1="1.80785" x2="184.077" y2="347.424" gradientUnits="userSpaceOnUse">
<stop stop-color="#FDFEFF" stop-opacity="0"/>
<stop offset="0.9104" stop-color="#FDFEFF" stop-opacity="0.91"/>
<stop offset="1" stop-color="#FDFEFF"/>
</linearGradient>
<linearGradient id="paint18_linear_5_7" x1="363.203" y1="-2.10827" x2="189.049" y2="342.619" gradientUnits="userSpaceOnUse">
<stop stop-color="#FDFEFF" stop-opacity="0"/>
<stop offset="0.9104" stop-color="#FDFEFF" stop-opacity="0.91"/>
<stop offset="1" stop-color="#FDFEFF"/>
</linearGradient>
<linearGradient id="paint19_linear_5_7" x1="-174.887" y1="225.062" x2="2040.94" y2="980.805" gradientUnits="userSpaceOnUse">
<stop stop-color="#E6E6E5"/>
<stop offset="1" stop-color="#B4B4B4"/>
</linearGradient>
<linearGradient id="paint20_linear_5_7" x1="358.304" y1="481.668" x2="1302.39" y2="1175.43" gradientUnits="userSpaceOnUse">
<stop stop-color="white"/>
<stop offset="1" stop-color="#CDCCCC"/>
</linearGradient>
<linearGradient id="paint21_linear_5_7" x1="-161.018" y1="242.5" x2="436.291" y2="267.6" gradientUnits="userSpaceOnUse">
<stop stop-color="#E6E6E5"/>
<stop offset="1" stop-color="#B4B4B4"/>
</linearGradient>
<linearGradient id="paint22_linear_5_7" x1="410.122" y1="407.39" x2="1151.93" y2="1135.99" gradientUnits="userSpaceOnUse">
<stop stop-color="white"/>
<stop offset="1" stop-color="#CDCCCC"/>
</linearGradient>
<linearGradient id="paint23_linear_5_7" x1="637.898" y1="129.052" x2="972.234" y2="1257.82" gradientUnits="userSpaceOnUse">
<stop stop-color="white"/>
<stop offset="1" stop-color="#F3F3F3"/>
</linearGradient>
<linearGradient id="paint24_linear_5_7" x1="206.486" y1="41.1986" x2="310.311" y2="393.853" gradientUnits="userSpaceOnUse">
<stop stop-color="white"/>
<stop offset="1" stop-color="#F3F3F3"/>
</linearGradient>
<linearGradient id="paint25_linear_5_7" x1="-61.5973" y1="105.432" x2="922.93" y2="477.009" gradientUnits="userSpaceOnUse">
<stop stop-color="#E6E6E5"/>
<stop offset="1" stop-color="#B4B4B4"/>
</linearGradient>
<linearGradient id="paint26_linear_5_7" x1="572.684" y1="226.601" x2="734.202" y2="773.283" gradientUnits="userSpaceOnUse">
<stop stop-color="white"/>
<stop offset="1" stop-color="#F3F3F3"/>
</linearGradient>
<linearGradient id="paint27_linear_5_7" x1="8.74181" y1="52.4441" x2="393.957" y2="430.7" gradientUnits="userSpaceOnUse">
<stop stop-color="#E6E6E5"/>
<stop offset="1" stop-color="#B4B4B4"/>
</linearGradient>
<linearGradient id="paint28_linear_5_7" x1="44.1122" y1="17.2993" x2="180.57" y2="353.421" gradientUnits="userSpaceOnUse">
<stop stop-color="#E6E6E5"/>
<stop offset="1" stop-color="#B4B4B4"/>
</linearGradient>
<linearGradient id="paint29_linear_5_7" x1="80.129" y1="101.711" x2="174.262" y2="206.028" gradientUnits="userSpaceOnUse">
<stop stop-color="#E6E6E5"/>
<stop offset="1" stop-color="#B4B4B4"/>
</linearGradient>
<linearGradient id="paint30_linear_5_7" x1="18.2062" y1="167.864" x2="536.359" y2="167.864" gradientUnits="userSpaceOnUse">
<stop stop-color="white"/>
<stop offset="1" stop-color="#F3F3F3"/>
</linearGradient>
<linearGradient id="paint31_linear_5_7" x1="15.2166" y1="241.361" x2="585.179" y2="241.361" gradientUnits="userSpaceOnUse">
<stop stop-color="white"/>
<stop offset="1" stop-color="#F3F3F3"/>
</linearGradient>
<linearGradient id="paint32_linear_5_7" x1="21.6981" y1="30.6467" x2="315.098" y2="436.343" gradientUnits="userSpaceOnUse">
<stop stop-color="#E6E6E5"/>
<stop offset="1" stop-color="#B4B4B4"/>
</linearGradient>
<linearGradient id="paint33_linear_5_7" x1="5.25224" y1="55.4349" x2="400.901" y2="338.901" gradientUnits="userSpaceOnUse">
<stop stop-color="#E6E6E5"/>
<stop offset="1" stop-color="#B4B4B4"/>
</linearGradient>
<linearGradient id="paint34_linear_5_7" x1="80.129" y1="95.9485" x2="174.251" y2="200.265" gradientUnits="userSpaceOnUse">
<stop stop-color="#E6E6E5"/>
<stop offset="1" stop-color="#B4B4B4"/>
</linearGradient>
<linearGradient id="paint35_linear_5_7" x1="15.2166" y1="206.434" x2="585.179" y2="206.434" gradientUnits="userSpaceOnUse">
<stop stop-color="white"/>
<stop offset="1" stop-color="#F3F3F3"/>
</linearGradient>
<linearGradient id="paint36_linear_5_7" x1="18.2062" y1="254.258" x2="536.359" y2="254.258" gradientUnits="userSpaceOnUse">
<stop stop-color="white"/>
<stop offset="1" stop-color="#F3F3F3"/>
</linearGradient>
<linearGradient id="paint37_linear_5_7" x1="-73.979" y1="125.499" x2="1444.34" y2="881.86" gradientUnits="userSpaceOnUse">
<stop stop-color="#E6E6E5"/>
<stop offset="1" stop-color="#B4B4B4"/>
</linearGradient>
<linearGradient id="paint38_linear_5_7" x1="-153.202" y1="298.551" x2="293.385" y2="303.825" gradientUnits="userSpaceOnUse">
<stop stop-color="#E6E6E5"/>
<stop offset="1" stop-color="#B4B4B4"/>
</linearGradient>
<linearGradient id="paint39_linear_5_7" x1="172.147" y1="-106.171" x2="496.037" y2="987.323" gradientUnits="userSpaceOnUse">
<stop stop-color="white"/>
<stop offset="1" stop-color="#F3F3F3"/>
</linearGradient>
<linearGradient id="paint40_linear_5_7" x1="113.143" y1="10.1921" x2="197.529" y2="292.494" gradientUnits="userSpaceOnUse">
<stop stop-color="white"/>
<stop offset="1" stop-color="#F3F3F3"/>
</linearGradient>
</defs>
</svg>

