<svg width="50" height="50" viewBox="0 0 50 50" fill="currentColor" xmlns="http://www.w3.org/2000/svg">
<path d="M40.7903 2C37.1679 4.6087 36.866 7.3587 34.9362 11.6739C36.2191 12.2174 37.405 12.8152 38.4939 13.4565C42.1272 9.91304 38.9252 6.5 40.7903 2ZM7.36673 3.41304C6.68213 7.90217 9.36339 10.6413 12.0048 13.1196C14.0532 15.0543 16.0585 16.8696 16.9209 19.0435C17.2013 18.25 17.5462 17.4783 17.9451 16.75C17.3522 12.4457 15.0882 10.4891 12.781 8.75C10.711 7.19565 8.64105 5.79348 7.36673 3.41304ZM18.2686 10.9348C18.0637 10.9348 17.8481 10.9457 17.6433 10.9457C18.7429 12.4891 19.5515 14.4565 19.8103 17.1957C19.8211 17.3696 19.7887 17.5435 19.7132 17.6957C19.2281 18.8587 13.9669 32.6196 34.6235 32.9348C34.7313 32.9239 34.8284 32.913 34.9362 32.9022C53.3719 30.6304 44.6392 10.7826 18.2686 10.9348ZM49.9327 11.2609C46.7199 14.1413 43.5934 11.4891 40.6394 14.8696C41.8469 15.7717 42.8818 16.7283 43.7443 17.7065C46.1593 15.6739 48.6282 15.163 49.9327 11.2609ZM8.2745 11.8804C5.95009 12.2935 3.52542 12.8478 1.00911 13.5543C2.167 14.2283 3.36155 14.2609 4.69086 14.3043C6.97106 14.3696 9.61135 14.3913 13.0074 16.5761C11.7891 15.337 10.3552 14.1304 9.08308 12.7826C8.80277 12.4891 8.53324 12.1848 8.2745 11.8804ZM0.769771 15.4674C1.26139 16.663 1.85866 17.587 2.54326 18.3261C4.20247 20.0978 6.34684 20.7174 8.54402 21.2283C11.1207 21.8261 13.7729 22.2826 16.0153 23.7826C16.0261 23.087 16.1016 22.3804 16.2202 21.6957C11.056 16.2283 7.53276 16.1957 4.63695 16.1087C3.24619 16.0652 1.98696 16 0.769771 15.4674ZM49.9974 17.9022C48.7468 19.4022 47.0218 19.2826 45.1782 19.6087C45.3831 19.9348 45.5771 20.2609 45.7496 20.587C46.2024 21.4783 46.5366 22.3696 46.7415 23.25C50.213 21.5217 49.9974 17.9022 49.9974 17.9022ZM0.396745 18.5326L0.349308 26.9022C2.7481 27.1957 4.72644 26.0761 6.79964 25.1304C8.20981 24.4891 9.66526 23.8913 11.2609 23.7065C10.2367 23.4348 9.18011 23.2283 8.14512 22.9891C5.60078 22.4022 3.15347 21.6196 1.23444 19.5652C0.943347 19.25 0.663038 18.913 0.396745 18.5326ZM41.2539 22.1087C41.9008 22.0978 42.4722 22.3913 42.7093 22.9022C43.0436 23.6522 42.5476 24.6087 41.5989 25.0326C40.6394 25.4457 39.5936 25.1848 39.2486 24.4348C38.9036 23.6848 39.3995 22.7283 40.3591 22.3043C40.6502 22.1739 40.9628 22.1087 41.2539 22.1087ZM26.7425 22.9783C27.0875 22.9783 27.4433 23.0543 27.7991 23.2065C28.9203 23.7065 29.5025 24.8152 29.0928 25.6956C28.6939 26.5761 27.4649 26.8913 26.3436 26.4022C25.2224 25.9022 24.6402 24.7935 25.0499 23.913C25.3194 23.3043 25.9878 22.9674 26.7425 22.9783ZM12.2743 25.4891C10.5277 25.4891 9.00761 26.1087 7.53923 26.7826C5.20727 27.837 2.96696 28.9891 0.298637 28.7174C1.92011 29.8913 4.13132 30.2065 6.37271 30.1522C10.6787 30.0435 15.1528 28.4891 16.5975 27.9457C16.4466 27.4674 16.328 26.9891 16.231 26.5C14.7647 25.7609 13.471 25.4783 12.2743 25.4891ZM11.207 31.3804C9.68682 31.6956 8.03947 31.9239 6.41691 31.9674C5.58569 31.9891 4.76094 31.9565 3.96206 31.8587C0.763302 36.2826 3.5513 39.6304 0 44.1957L3.63647 43.9783L4.50974 48L9.13699 44.7391H13.6866L11.4549 41.913C13.029 37.0217 16.0908 34.9674 19.8965 34.0761C19.0017 33.0543 16.7377 31.5435 11.207 31.3804ZM42.6986 33.4456L32.9848 36.9674L37.556 39.4674L35.3351 42.25L40.0033 42.1413L46.2348 45.3152L45.7712 42.7391C45.7712 42.7391 48.1646 43.5761 49.178 42.087C44.4128 40.3587 45.4477 37.25 42.6986 33.4456Z" fill="currentColor"/>
</svg>
