<svg width="50" height="50" viewBox="0 0 50 50" fill="none" xmlns="http://www.w3.org/2000/svg">
<path d="M43.1873 5.00058C41.8897 4.98143 38.8755 5.42088 33.8429 8.78108C31.1001 8.09722 28.1817 7.75975 25.2584 7.75975C22.0418 7.75975 18.7913 8.16722 15.76 8.99679C8.53464 4.0794 5.34543 5.08712 5.34543 5.08712C3.26339 10.2813 4.55 14.1268 4.94105 15.0819C2.49392 17.7167 1 21.0812 1 25.2047C1 28.3178 1.35516 31.1099 2.22288 33.5372C2.27101 33.7245 2.25541 33.6827 2.33649 33.8431C2.52766 34.3456 2.74021 34.8333 2.97911 35.3043C3.06097 35.4738 3.13548 35.5993 3.13548 35.5993C5.57472 40.1353 10.3833 43.0654 18.9388 43.9854L31.8785 44C41.0026 43.0974 45.3808 40.1585 47.3984 35.592L47.5266 35.2946C47.7178 34.8333 47.8845 34.3533 48.3403 32.7377C48.7961 31.122 49 28.324 49 25.2035C49 20.728 47.3151 17.147 44.5788 14.4225C45.057 12.8828 45.6957 9.46338 43.9411 5.08587C43.9411 5.08587 43.6951 5.00807 43.1874 5.00054L43.1873 5.00058ZM32.9902 21.4242C35.097 21.4196 36.9018 21.7805 38.2567 23.1986V23.1998C39.9522 24.9759 40.9444 27.1203 40.9444 29.4312C40.9444 40.2208 33.9884 40.5143 25.4086 40.5143C16.8274 40.5143 9.87289 39.0192 9.87289 29.4312C9.87289 27.1356 10.8506 25.0041 12.5251 23.2352C15.3184 20.2872 20.0453 21.8483 25.4087 21.8483C28.1617 21.8478 30.7474 21.429 32.9903 21.4241L32.9902 21.4242ZM17.0085 24.6014C15.2233 24.6014 13.776 27.0093 13.776 29.9809C13.776 32.9529 15.2232 35.3616 17.0085 35.3616C18.7937 35.3616 20.241 32.9529 20.241 29.9809C20.241 27.0097 18.7938 24.6036 17.0085 24.6014ZM34.3523 24.6014C32.567 24.6014 31.1198 27.0093 31.1198 29.9809C31.1198 32.9529 32.567 35.3616 34.3523 35.3616C36.1375 35.3616 37.5848 32.9529 37.5848 29.9809C37.5848 27.0097 36.1376 24.6036 34.3523 24.6014Z" fill="currentColor"/>
</svg>
