<svg width="50" height="50" viewBox="0 0 50 50" fill="none" xmlns="http://www.w3.org/2000/svg">
<path d="M46.25 0H3.75C1.66667 0 0 1.66667 0 3.54167V46.25C0 48.125 1.66667 49.7917 3.75 49.7917H46.25C48.3333 49.7917 50 48.125 50 46.25V3.54167C50 1.66667 48.3333 0 46.25 0ZM14.7917 42.5H7.5V18.75H14.7917V42.5ZM11.25 15.4167C8.95833 15.4167 6.875 13.5417 6.875 11.0417C6.875 8.54167 8.75 6.66667 11.25 6.66667C13.5417 6.66667 15.625 8.54167 15.625 11.0417C15.625 13.5417 13.5417 15.4167 11.25 15.4167ZM42.7083 42.2917H35.4167V30.625C35.4167 27.9167 35.4167 24.1667 31.4583 24.1667C27.5 24.1667 27.0833 27.2917 27.0833 30.2083V42.0833H19.7917V18.75H26.6667V21.875H26.875C27.9167 20 30.4167 17.9167 33.9583 17.9167C41.4583 17.9167 42.9167 22.9167 42.9167 29.375V42.2917H42.7083Z" fill="currentColor"/>
</svg>
